# xmcd CD database file
# Generated: Sun Oct 7 22:10:13 2001 by KSCD
# 
# Track frame offsets:
#       150
#       24035
#       44975
#       71650
#       86647
#       100257
#       108982
#       129700
#       145155
#       165630
#       175765
#       205015
#       220522
#       232515
#
# Disc length: 3320 seconds
#
# Revision: 2
# Processed by: cddbd v1.4PL0 Copyright (c) Steve Scherf et al.
# Submitted via: Kscd 1.3.0
#
DISCID=b60cf60e
DTITLE=TODAS LAS SANGRES /
DYEAR=1900
DGENRE=
TTITLE0=/El condor pasa /
TTITLE1=/Fuego de amor /
TTITLE2=/Guantanamera /
TTITLE3=/El pastor solitario /
TTITLE4=/Camino a San Francisco /
TTITLE5=/Sonidos del silencio /
TTITLE6=/Paseando en Nueva York /
TTITLE7=/India /
TTITLE8=/Corazon triste /
TTITLE9=/Galopera /
TTITLE10=/Romeo Y Julieta /
TTITLE11=/Recuerdos de Ipacarai /
TTITLE12=/Carnavalito /
TTITLE13=/Juja juja /
EXTD=TODAS LAS SANGRES\n\nSOM MISTICO DAS FLAUTAS ANDINAS\n\nVOL.2
EXTT0=
EXTT1=
EXTT2=
EXTT3=
EXTT4=
EXTT5=
EXTT6=
EXTT7=
EXTT8=
EXTT9=
EXTT10=
EXTT11=
EXTT12=
EXTT13=
PLAYORDER=
